<?xml version="1.0" standalone="no"?><!DOCTYPE svg PUBLIC "-//W3C//DTD SVG 1.1//EN" "http://www.w3.org/Graphics/SVG/1.1/DTD/svg11.dtd"><svg t="1597327745209" class="icon" viewBox="0 0 1024 1024" version="1.1" xmlns="http://www.w3.org/2000/svg" p-id="8552" data-spm-anchor-id="a313x.7781069.0.i20" xmlns:xlink="http://www.w3.org/1999/xlink"><defs><style type="text/css"></style></defs><path d="M899.2 140c-0.8-0.8-20-15.2-50.4-30.4-9.6-4.8-52.8-25.6-120-41.6-16-4-31.2-8-55.2-12C631.2 48.8 577.6 40 501.6 36.8L496 36.8C420 40 367.2 48.8 325.6 56c-24 4-40 8-55.2 12-67.2 16-110.4 36.8-120 41.6-31.2 15.2-50.4 28.8-50.4 30.4 0 0 0.8 51.2 6.4 112 4 47.2 8.8 88 16 135.2 8.8 66.4 32.8 201.6 57.6 268.8 32.8 87.2 76 135.2 94.4 157.6 69.6 84 175.2 151.2 225.6 175.2 50.4-24 156-90.4 225.6-175.2 18.4-22.4 61.6-70.4 94.4-157.6 25.6-67.2 48.8-202.4 57.6-268.8 6.4-47.2 11.2-88 16-135.2C898.4 191.2 899.2 140 899.2 140zM858.4 267.2c-4 43.2-8 80.8-14.4 124.8-8 60.8-29.6 185.6-52.8 248C761.6 720 723.2 764.8 706.4 785.6c-61.6 77.6-161.6 144-207.2 167.2-45.6-23.2-144.8-88.8-207.2-168C275.2 764.8 236.8 720 206.4 640c-23.2-62.4-44.8-187.2-52.8-248-5.6-44-10.4-80.8-14.4-124.8-4.8-56-6.4-112-5.6-112 0.8-0.8 22.4-12.8 46.4-23.2 8.8-4 48-20.8 109.6-35.2 14.4-3.2 28.8-6.4 51.2-10.4 38.4-7.2 87.2-15.2 156-18.4l4.8 0c69.6 3.2 118.4 11.2 156 18.4 22.4 4 36.8 6.4 51.2 9.6 61.6 15.2 100.8 32 111.2 36 28 12 45.6 22.4 46.4 23.2C866.4 156 864 211.2 858.4 267.2z" p-id="8553" data-spm-anchor-id="a313x.7781069.0.i21" class="" fill="#E01E5A"></path><path d="M655.2 206.4c0-22.4-18.4-40.8-40.8-40.8L384 165.6c-22.4 0-40.8 18.4-40.8 40.8l0 63.2 311.2 0L654.4 206.4z" p-id="8554" data-spm-anchor-id="a313x.7781069.0.i26" class="selected"></path><path d="M749.6 296 655.2 296 343.2 296 248 296c-14.4 0-25.6 12-25.6 25.6s12 25.6 25.6 25.6l501.6 0c14.4 0 25.6-12 25.6-25.6S764 296 749.6 296z" p-id="8555" data-spm-anchor-id="a313x.7781069.0.i27" class="selected"></path><path d="M704 599.2c-17.6-8.8-40-17.6-40-17.6s0-34.4 0-37.6c0.8-4 4.8-12.8 8.8-19.2 4-7.2 19.2-30.4 17.6-29.6-0.8 0-60 17.6-60 17.6s-33.6 42.4-34.4 43.2c-2.4 3.2-8 12-14.4 18.4-5.6 5.6-12 12-23.2 18.4-8.8 5.6-20 8-24.8 9.6C529.6 602.4 512 608 497.6 608c-7.2 0-25.6-4.8-28-4.8-2.4-0.8-16-4.8-20.8-6.4-4.8-1.6-13.6-7.2-24.8-16.8-11.2-10.4-19.2-23.2-19.2-23.2L368.8 512c0 0-60.8-17.6-60.8-17.6 0 1.6 3.2 8 9.6 17.6 16.8 24.8 16 32.8 16 32.8l0 36.8c0 0-8.8 3.2-16.8 6.4-8 3.2-20 8.8-37.6 18.4-16 9.6-23.2 18.4-23.2 18.4l0 35.2c7.2 16 51.2 84 78.4 112 37.6 38.4 75.2 68 92.8 80.8 16.8 12 60 39.2 71.2 39.2 20 0 67.2-36 83.2-48 16-12 52.8-45.6 62.4-54.4 8.8-8.8 18.4-18.4 25.6-26.4 8-8.8 24-30.4 34.4-45.6 16-23.2 32.8-49.6 36.8-58.4l0-35.2C735.2 617.6 721.6 608 704 599.2zM520 747.2l-40.8 17.6 0-7.2 32-13.6-32-13.6 0-7.2 40.8 16.8 0 0L520 747.2zM520 660.8l-32 13.6 32 13.6 0 7.2-40.8-17.6 0-7.2 0 0 40.8-16.8L520 660.8z" p-id="8556" data-spm-anchor-id="a313x.7781069.0.i24" class="" fill="#36C5F0"></path><path d="M364 490.4c17.6 8.8 60 4 76.8-3.2 22.4-10.4 37.6-23.2 46.4-52.8 0.8-3.2 2.4-7.2 3.2-11.2l8-6.4 8 6.4c0.8 4 2.4 8 3.2 11.2 9.6 29.6 24 42.4 46.4 52.8 16.8 8 59.2 12 76.8 3.2 12.8-5.6 27.2-20 36-32.8 12-16 20-31.2 29.6-48 5.6-10.4 9.6-24 9.6-28 0-5.6-1.6-8.8-8-11.2-8-3.2-18.4-3.2-27.2-4-9.6-0.8-32.8-0.8-71.2-0.8-32.8 0-32.8-0.8-52.8 0-14.4 0.8-28 3.2-38.4 16.8l-28 0c-10.4-14.4-24-16.8-38.4-16.8-19.2-0.8-19.2 0-52.8 0-37.6 0-59.2 0-71.2 0.8-8 0.8-18.4 1.6-26.4 4.8-6.4 2.4-8 5.6-8 11.2 0 4.8 4 17.6 9.6 28 9.6 16.8 17.6 32 29.6 48C337.6 471.2 352 484.8 364 490.4z" p-id="8557" data-spm-anchor-id="a313x.7781069.0.i25" class="selected"></path></svg>