<?xml version="1.0" standalone="no"?><!DOCTYPE svg PUBLIC "-//W3C//DTD SVG 1.1//EN" "http://www.w3.org/Graphics/SVG/1.1/DTD/svg11.dtd"><svg t="1597327852697" class="icon" viewBox="0 0 1029 1024" version="1.1" xmlns="http://www.w3.org/2000/svg" p-id="10307" xmlns:xlink="http://www.w3.org/1999/xlink" ><defs><style type="text/css"></style></defs><path d="M1 959l515-894.9L1029.4 959" fill="#FFFFFF" p-id="10308"></path><path d="M429.2 212.8l85.8-148.7 85.8 148.7z" fill="#38C9E5" p-id="10309"></path><path d="M0 958.9l85.7-148.7 85.9 148.7z" fill="#2ED7FF" p-id="10310"></path><path d="M856.8 958.9l85.8-148.7 85.8 148.7z" fill="#00EACA" p-id="10311"></path><path d="M270 493.8h488.4l-68.1-118.6H338z" fill="#C7C9FD" p-id="10312"></path><path d="M344.4 571h337.5v86.2H344.4z" fill="#545EFB" p-id="10313"></path><path d="M729.8 523.8v406.1H297.5V523.8h432.3m30-30H267.5v466.1h492.3V493.8z" fill="#545EFB" p-id="10314"></path><path d="M668 690v16.5H358.4V690h309.6m14-14H344.4v44.5h337.5V676h0.1z" fill="#545EFB" p-id="10315"></path></svg>